<?xml version="1.0" encoding="UTF-8"?>
<svg width="439.3701pt" height="141.7323pt" 
viewBox="0 0 439.3701 141.7323" 
preserveAspectRatio="xMinYMin"
xmlns:xlink="http://www.w3.org/1999/xlink"
xmlns="http://www.w3.org/2000/svg">
<!-- Generated by PQINA - https://pqina.nl/ -->
<title></title>
<g transform="rotate(NaN 219.68505 70.86615) translate(219.68505 70.86615) scale(NaN) translate(-219.68505 -70.86615) translate(0 0)">
<g transform="scale(1 1) translate(0 0)">
<svg xmlns="http://www.w3.org/2000/svg" xmlns:xlink="http://www.w3.org/1999/xlink" width="439.3701" height="141.7323" viewBox="0 0 439.3701 141.7323" version="1.1" style="overflow: visible;">
<g id="surface1">
<path style=" stroke:none;fill-rule:nonzero;fill:rgb(0%,42.352295%,71.765137%);fill-opacity:1;" d="M 117.152344 122.335938 L 124.917969 130.109375 L 68.027344 130.109375 L 68.027344 122.335938 Z M 117.152344 122.335938 "></path>
<path style=" stroke:none;fill-rule:nonzero;fill:rgb(0%,42.352295%,71.765137%);fill-opacity:1;" d="M 396.253906 13.027344 L 396.277344 66.789063 L 194.039063 66.789063 L 194.039063 13.027344 L 203.640625 13.027344 L 203.640625 58.011719 L 307.757813 58.011719 L 307.757813 36.199219 L 317.292969 36.199219 L 317.292969 58.011719 L 345.167969 58.011719 C 344.222656 57.011719 343.460938 55.703125 342.917969 54.648438 C 342.191406 53.222656 341.804688 51.492188 341.804688 49.445313 C 341.804688 45.320313 343.234375 41.871094 346.054688 39.105469 C 348.878906 36.324219 352.375 34.9375 356.539063 34.9375 C 360.625 34.9375 364.0625 36.316406 366.871094 39.050781 C 369.664063 41.789063 371.082031 45.203125 371.082031 49.296875 C 371.082031 51.097656 370.71875 52.726563 369.984375 54.191406 C 369.441406 55.328125 368.640625 56.824219 367.59375 58.011719 L 386.765625 58.011719 L 386.742188 13.027344 Z M 363.449219 50.886719 C 363.449219 48.96875 362.78125 47.339844 361.464844 45.988281 C 360.152344 44.640625 358.535156 43.972656 356.609375 43.972656 C 354.59375 43.972656 352.867188 44.644531 351.519531 46.023438 C 350.207031 47.394531 349.527344 49.097656 349.527344 51.152344 C 349.527344 53.039063 350.207031 54.640625 351.535156 55.992188 C 352.914063 57.347656 354.5 58.011719 356.34375 58.011719 C 358.355469 58.011719 360.046875 57.328125 361.414063 55.96875 C 362.769531 54.601563 363.449219 52.910156 363.449219 50.886719 "></path>
<path style=" stroke:none;fill-rule:nonzero;fill:rgb(0%,42.352295%,71.765137%);fill-opacity:1;" d="M 203.46875 87.878906 L 203.46875 130.109375 L 193.933594 130.109375 L 194.082031 124.269531 C 192.652344 126.574219 190.839844 128.292969 188.675781 129.40625 C 186.523438 130.515625 183.882813 131.066406 180.777344 131.066406 C 174.53125 131.066406 169.320313 128.929688 165.09375 124.65625 C 160.886719 120.378906 158.804688 115.089844 158.804688 108.792969 C 158.804688 102.585938 160.867188 97.367188 165.023438 93.136719 C 169.167969 88.890625 174.335938 86.773438 180.566406 86.773438 C 183.285156 86.773438 185.769531 87.304688 187.992188 88.398438 C 190.199219 89.492188 192.238281 91.175781 194.082031 93.457031 L 193.917969 87.878906 Z M 193.78125 109.09375 C 193.78125 105.535156 192.585938 102.546875 190.164063 100.132813 C 187.753906 97.734375 184.753906 96.542969 181.15625 96.542969 C 177.757813 96.542969 174.878906 97.683594 172.484375 100.03125 C 170.089844 102.359375 168.902344 105.226563 168.902344 108.632813 C 168.902344 112.242188 170.101563 115.230469 172.539063 117.601563 C 174.949219 119.984375 177.996094 121.160156 181.621094 121.160156 C 184.953125 121.160156 187.820313 119.964844 190.199219 117.59375 C 192.597656 115.203125 193.78125 112.367188 193.78125 109.09375 "></path>
<path style=" stroke:none;fill-rule:nonzero;fill:rgb(0%,42.352295%,71.765137%);fill-opacity:1;" d="M 386.757813 87.878906 L 396.285156 87.878906 L 396.285156 130.109375 L 386.757813 130.109375 L 386.886719 124.269531 C 385.445313 126.574219 383.652344 128.292969 381.496094 129.40625 C 379.339844 130.515625 376.699219 131.066406 373.582031 131.066406 C 367.335938 131.066406 362.101563 128.929688 357.910156 124.65625 C 353.707031 120.378906 351.589844 115.089844 351.589844 108.792969 C 351.589844 102.585938 353.675781 97.367188 357.835938 93.136719 C 361.984375 88.890625 367.160156 86.773438 373.355469 86.773438 C 376.101563 86.773438 378.574219 87.3125 380.816406 88.398438 C 383.011719 89.492188 385.050781 91.175781 386.886719 93.457031 Z M 386.589844 109.09375 C 386.589844 105.535156 385.367188 102.546875 382.96875 100.132813 C 380.570313 97.734375 377.554688 96.542969 373.96875 96.542969 C 370.566406 96.542969 367.664063 97.683594 365.28125 100.03125 C 362.90625 102.359375 361.703125 105.226563 361.703125 108.632813 C 361.703125 112.242188 362.925781 115.230469 365.339844 117.601563 C 367.777344 119.984375 370.792969 121.160156 374.433594 121.160156 C 377.769531 121.160156 380.636719 119.984375 383.011719 117.59375 C 385.402344 115.203125 386.589844 112.371094 386.589844 109.09375 "></path>
<path style=" stroke:none;fill-rule:nonzero;fill:rgb(0%,42.352295%,71.765137%);fill-opacity:1;" d="M 289.089844 87.878906 L 298.644531 87.878906 L 298.644531 130.109375 L 289.089844 130.109375 L 289.253906 124.269531 C 287.808594 126.574219 286.007813 128.292969 283.847656 129.40625 C 281.683594 130.515625 279.039063 131.066406 275.953125 131.066406 C 269.683594 131.066406 264.453125 128.929688 260.253906 124.65625 C 256.066406 120.378906 253.957031 115.089844 253.957031 108.792969 C 253.957031 102.585938 256.027344 97.367188 260.1875 93.136719 C 264.34375 88.890625 269.503906 86.773438 275.726563 86.773438 C 278.453125 86.773438 280.925781 87.304688 283.15625 88.398438 C 285.378906 89.492188 287.398438 91.175781 289.253906 93.457031 Z M 288.929688 109.09375 C 288.929688 105.535156 287.738281 102.546875 285.328125 100.132813 C 282.921875 97.734375 279.921875 96.542969 276.328125 96.542969 C 272.902344 96.542969 270.03125 97.683594 267.648438 100.03125 C 265.265625 102.359375 264.078125 105.226563 264.078125 108.632813 C 264.078125 112.242188 265.265625 115.230469 267.707031 117.601563 C 270.109375 119.984375 273.15625 121.160156 276.792969 121.160156 C 280.101563 121.160156 282.984375 119.964844 285.363281 117.59375 C 287.761719 115.203125 288.929688 112.367188 288.929688 109.09375 "></path>
<path style=" stroke:none;fill-rule:nonzero;fill:rgb(0%,42.352295%,71.765137%);fill-opacity:1;" d="M 35.152344 19.714844 L 35.152344 38.726563 L 16.140625 38.726563 C 20.945313 31.050781 27.46875 24.539063 35.152344 19.714844 "></path>
<path style=" stroke:none;fill-rule:nonzero;fill:rgb(0%,42.352295%,71.765137%);fill-opacity:1;" d="M 270.988281 24.296875 C 270.988281 21.632813 273.15625 19.46875 275.8125 19.46875 C 278.492188 19.46875 280.65625 21.632813 280.65625 24.296875 C 280.65625 26.96875 278.492188 29.125 275.8125 29.125 C 273.15625 29.125 270.988281 26.96875 270.988281 24.296875 "></path>
<path style=" stroke:none;fill-rule:nonzero;fill:rgb(0%,42.352295%,71.765137%);fill-opacity:1;" d="M 350.773438 24.296875 C 350.773438 21.632813 352.929688 19.46875 355.589844 19.46875 C 358.265625 19.46875 360.410156 21.632813 360.410156 24.296875 C 360.410156 26.96875 358.265625 29.125 355.589844 29.125 C 352.929688 29.125 350.773438 26.96875 350.773438 24.296875 "></path>
<path style=" stroke:none;fill-rule:nonzero;fill:rgb(0%,42.352295%,71.765137%);fill-opacity:1;" d="M 405.164063 66.789063 L 405.164063 13.027344 L 414.992188 13.027344 L 415.019531 66.789063 Z M 405.164063 66.789063 "></path>
<path style=" stroke:none;fill-rule:nonzero;fill:rgb(0%,42.352295%,71.765137%);fill-opacity:1;" d="M 94.429688 99.648438 L 68.03125 99.648438 L 68.03125 91.878906 L 86.675781 91.878906 Z M 94.429688 99.648438 "></path>
<path style=" stroke:none;fill-rule:nonzero;fill:rgb(0%,42.352295%,71.765137%);fill-opacity:1;" d="M 74.128906 79.339844 L 68.035156 79.339844 L 68.035156 73.265625 Z M 74.128906 79.339844 "></path>
<path style=" stroke:none;fill-rule:nonzero;fill:rgb(0%,42.352295%,71.765137%);fill-opacity:1;" d="M 84.292969 89.5 L 68.035156 89.496094 L 68.035156 81.734375 L 76.503906 81.734375 Z M 84.292969 89.5 "></path>
<path style=" stroke:none;fill-rule:nonzero;fill:rgb(0%,42.352295%,71.765137%);fill-opacity:1;" d="M 114.753906 119.957031 L 68.03125 119.957031 L 68.03125 112.191406 L 106.988281 112.191406 Z M 114.753906 119.957031 "></path>
<path style=" stroke:none;fill-rule:nonzero;fill:rgb(0%,42.352295%,71.765137%);fill-opacity:1;" d="M 96.117188 38.726563 L 68.035156 38.726563 L 68.035156 10.664063 C 78.210938 10.863281 87.777344 13.605469 96.117188 18.292969 Z M 96.117188 38.726563 "></path>
<path style=" stroke:none;fill-rule:nonzero;fill:rgb(0%,42.352295%,71.765137%);fill-opacity:1;" d="M 117.527344 38.726563 L 98.511719 38.726563 L 98.511719 19.71875 C 106.191406 24.535156 112.703125 31.054688 117.527344 38.726563 "></path>
<path style=" stroke:none;fill-rule:nonzero;fill:rgb(0%,42.352295%,71.765137%);fill-opacity:1;" d="M 89.679688 71.574219 L 96.117188 71.574219 L 96.117188 97.945313 L 75.242188 77.085938 C 79.074219 73.652344 84.136719 71.574219 89.679688 71.574219 "></path>
<path style=" stroke:none;fill-rule:nonzero;fill:rgb(0%,42.352295%,71.765137%);fill-opacity:1;" d="M 68.03125 47.515625 L 68.03125 41.109375 L 96.117188 41.109375 L 96.117188 69.183594 L 89.679688 69.175781 C 77.722656 69.175781 68.03125 59.480469 68.03125 47.515625 "></path>
<path style=" stroke:none;fill-rule:nonzero;fill:rgb(0%,42.352295%,71.765137%);fill-opacity:1;" d="M 104.597656 109.800781 L 68.03125 109.800781 L 68.03125 102.039063 L 96.835938 102.039063 Z M 104.597656 109.800781 "></path>
<path style=" stroke:none;fill-rule:nonzero;fill:rgb(0%,42.352295%,71.765137%);fill-opacity:1;" d="M 37.546875 18.296875 C 45.875 13.605469 55.445313 10.867188 65.628906 10.667969 L 65.628906 38.730469 L 37.546875 38.730469 Z M 37.546875 18.296875 "></path>
<path style=" stroke:none;fill-rule:nonzero;fill:rgb(0%,42.352295%,71.765137%);fill-opacity:1;" d="M 37.546875 41.109375 L 65.628906 41.109375 L 65.628906 47.519531 C 65.628906 59.476563 55.929688 69.183594 43.960938 69.183594 L 37.546875 69.183594 Z M 37.546875 41.109375 "></path>
<path style=" stroke:none;fill-rule:nonzero;fill:rgb(0%,42.352295%,71.765137%);fill-opacity:1;" d="M 16.140625 102.039063 L 35.152344 102.039063 L 35.152344 121.046875 C 27.472656 116.230469 20.945313 109.71875 16.140625 102.039063 "></path>
<path style=" stroke:none;fill-rule:nonzero;fill:rgb(0%,42.352295%,71.765137%);fill-opacity:1;" d="M 118.925781 41.109375 C 123.640625 49.4375 126.375 58.996094 126.585938 69.183594 L 98.507813 69.183594 L 98.507813 41.109375 Z M 118.925781 41.109375 "></path>
<path style=" stroke:none;fill-rule:nonzero;fill:rgb(0%,42.352295%,71.765137%);fill-opacity:1;" d="M 98.5 71.585938 L 126.589844 71.574219 C 126.273438 87.167969 119.964844 101.296875 109.910156 111.765625 L 98.5 100.351563 Z M 98.5 71.585938 "></path>
<path style=" stroke:none;fill-rule:nonzero;fill:rgb(0%,42.352295%,71.765137%);fill-opacity:1;" d="M 14.71875 41.109375 L 35.152344 41.109375 L 35.152344 69.183594 L 7.085938 69.183594 C 7.28125 58.996094 10.035156 49.4375 14.71875 41.109375 "></path>
<path style=" stroke:none;fill-rule:nonzero;fill:rgb(0%,42.352295%,71.765137%);fill-opacity:1;" d="M 65.628906 93.222656 L 65.628906 99.648438 L 37.546875 99.65625 L 37.546875 71.570313 L 43.960938 71.570313 C 55.929688 71.570313 65.628906 81.261719 65.628906 93.222656 "></path>
<path style=" stroke:none;fill-rule:nonzero;fill:rgb(0%,42.352295%,71.765137%);fill-opacity:1;" d="M 7.085938 71.574219 L 35.152344 71.574219 L 35.152344 99.648438 L 14.71875 99.648438 C 10.035156 91.324219 7.285156 81.757813 7.085938 71.574219 "></path>
<path style=" stroke:none;fill-rule:nonzero;fill:rgb(0%,42.352295%,71.765137%);fill-opacity:1;" d="M 37.546875 102.039063 L 65.628906 102.039063 L 65.628906 130.097656 C 55.445313 129.894531 45.875 127.152344 37.546875 122.460938 Z M 37.546875 102.039063 "></path>
<path style=" stroke:none;fill-rule:nonzero;fill:rgb(0%,42.352295%,71.765137%);fill-opacity:1;" d="M 213.570313 71.570313 L 223.164063 71.570313 L 223.164063 130.109375 L 213.570313 130.109375 Z M 213.570313 71.570313 "></path>
<path style=" stroke:none;fill-rule:nonzero;fill:rgb(0%,42.352295%,71.765137%);fill-opacity:1;" d="M 344.503906 99.191406 C 344.941406 101.167969 345.15625 104.003906 345.15625 107.742188 L 345.15625 130.109375 L 335.238281 130.109375 L 335.238281 111.402344 C 335.238281 105.695313 334.585938 101.800781 333.253906 99.714844 C 331.953125 97.636719 329.671875 96.605469 326.480469 96.605469 C 323.226563 96.605469 320.867188 97.757813 319.421875 100.058594 C 318 102.359375 317.289063 106.359375 317.289063 112.019531 L 317.289063 130.109375 L 307.761719 130.109375 L 307.761719 87.878906 L 317.289063 87.878906 L 317.289063 92.714844 C 318.75 90.789063 320.460938 89.300781 322.328125 88.386719 C 324.167969 87.457031 326.296875 86.992188 328.703125 86.992188 C 331.738281 86.992188 334.371094 87.578125 336.648438 88.730469 C 338.910156 89.878906 340.78125 91.617188 342.320313 93.914063 C 343.335938 95.480469 344.078125 97.246094 344.503906 99.191406 "></path>
<path style=" stroke:none;fill-rule:nonzero;fill:rgb(0%,42.352295%,71.765137%);fill-opacity:1;" d="M 174.328125 36.199219 L 174.3125 49.992188 C 174.3125 61.574219 165.019531 62.777344 155.882813 60.332031 C 155.882813 66.753906 165.621094 70.960938 174.234375 67.941406 C 182.859375 64.914063 183.9375 57.070313 183.9375 48.785156 L 183.9375 36.199219 Z M 174.328125 36.199219 "></path>
<path style=" stroke:none;fill-rule:nonzero;fill:rgb(0%,42.352295%,71.765137%);fill-opacity:1;" d="M 432.285156 88.621094 L 427.859375 96.824219 C 420.164063 93.621094 415.042969 98.699219 415.042969 106.234375 L 415.042969 130.109375 L 405.15625 130.109375 L 405.15625 87.878906 L 414.414063 87.878906 L 414.433594 92.222656 C 417.285156 87.09375 424.628906 84.648438 432.285156 88.621094 "></path>
<path style=" stroke:none;fill-rule:nonzero;fill:rgb(0%,42.352295%,71.765137%);fill-opacity:1;" d="M 228.859375 92.832031 L 251.867188 92.832031 L 251.867188 101.710938 L 228.859375 101.710938 Z M 228.859375 92.832031 "></path>
<path style=" stroke:none;fill-rule:nonzero;fill:rgb(0%,42.352295%,71.765137%);fill-opacity:1;" d="M 256.339844 72.890625 C 251.152344 69.578125 239 69.304688 235.238281 74.265625 C 233.78125 76.199219 232.367188 79.789063 232.367188 85.496094 L 232.367188 130.109375 L 242.191406 130.109375 L 242.191406 85.386719 C 242.191406 80.167969 245.027344 78.9375 251.914063 81.09375 Z M 256.339844 72.890625 "></path>
</g>
</svg>
</g>
</g>
</svg>